<svg version="1.1" xmlns="http://www.w3.org/2000/svg" xmlns:xlink="http://www.w3.org/1999/xlink" width="393.92529" height="394.38986" viewBox="0,0,393.92529,394.38986"><g transform="translate(-42.86934,17.71092)"><g data-paper-data="{&quot;isPaintingLayer&quot;:true}" fill="#ffffff" fill-rule="nonzero" stroke="#ffffff" stroke-width="2" stroke-linecap="butt" stroke-linejoin="miter" stroke-miterlimit="10" stroke-dasharray="" stroke-dashoffset="0" style="mix-blend-mode: normal"><path d="M284.72393,313.94501c0,-8.98942 7.28737,-16.27677 16.27677,-16.27677c8.98942,0 16.27677,7.28736 16.27677,16.27677c0,8.98942 -7.28736,16.27677 -16.27677,16.27677c-8.98942,0 -16.27677,-7.28737 -16.27677,-16.27677z"/><path d="M88.91052,242.67331c0,-8.98941 7.28737,-16.27675 16.27677,-16.27675c8.98942,0 16.27677,7.28735 16.27677,16.27677c0,8.98941 -7.28736,16.27677 -16.27676,16.27677c-8.98942,0 -16.27677,-7.28737 -16.27677,-16.27677z"/><path d="M356.363,117.3968c0,-8.98942 7.28736,-16.27675 16.27677,-16.27675c8.98942,0 16.27677,7.28736 16.27677,16.27677c0,8.98942 -7.28736,16.27677 -16.27677,16.27677c-8.98942,0 -16.27677,-7.28737 -16.27677,-16.27677z"/><path d="M162.0191,45.75774c0,-8.98942 7.28737,-16.27675 16.27677,-16.27675c8.98941,0 16.27677,7.28735 16.27677,16.27677c0,8.98941 -7.28736,16.27677 -16.27676,16.27677c-8.98941,0 -16.27677,-7.28737 -16.27677,-16.27677z"/><path d="M274.06991,40.61443c0,-8.98942 7.28736,-16.27675 16.27677,-16.27675c8.98942,0 16.27677,7.28736 16.27677,16.27677c0,8.98942 -7.28736,16.27677 -16.27677,16.27677c-8.98942,0 -16.27677,-7.28736 -16.27677,-16.27677z"/><path d="M84.86934,128.78557c0,-8.98942 7.28737,-16.27675 16.27677,-16.27675c8.98942,0 16.27677,7.28735 16.27677,16.27677c0,8.98943 -7.28736,16.27677 -16.27676,16.27677c-8.98942,0 -16.27677,-7.28735 -16.27677,-16.27677z"/><path d="M362.24107,230.54978c0,-8.98941 7.28737,-16.27677 16.27679,-16.27677c8.98943,0 16.27677,7.28736 16.27677,16.27679c0,8.98941 -7.28736,16.27679 -16.27677,16.27679c-8.98943,0 -16.27679,-7.28737 -16.27679,-16.27679z"/><path d="M172.67309,318.35357c0,-8.98942 7.28737,-16.27677 16.27677,-16.27677c8.98941,0 16.27677,7.28736 16.27677,16.27677c0,8.98942 -7.28736,16.27677 -16.27675,16.27677c-8.98941,0 -16.27677,-7.28737 -16.27677,-16.27677z"/><path d="M296.60143,349.52069c0,-11.36784 9.21546,-20.58328 20.58328,-20.58328c11.36784,0 20.58328,9.21545 20.58328,20.58328c0,11.36784 -9.21545,20.58328 -20.58328,20.58328c-11.36784,0 -20.58328,-9.21546 -20.58328,-20.58328z"/><path d="M48.97973,259.39193c0,-11.36783 9.21546,-20.58325 20.58328,-20.58325c11.36784,0 20.58328,9.21544 20.58328,20.58328c0,11.36783 -9.21545,20.58328 -20.58326,20.58328c-11.36784,0 -20.58328,-9.21546 -20.58328,-20.58328z"/><path d="M387.19476,100.96977c0,-11.36784 9.21545,-20.58325 20.58328,-20.58325c11.36784,0 20.58328,9.21545 20.58328,20.58328c0,11.36784 -9.21545,20.58328 -20.58328,20.58328c-11.36784,0 -20.58328,-9.21546 -20.58328,-20.58328z"/><path d="M141.43137,10.37646c0,-11.36784 9.21546,-20.58325 20.58328,-20.58325c11.36783,0 20.58328,9.21544 20.58328,20.58328c0,11.36783 -9.21545,20.58328 -20.58326,20.58328c-11.36783,0 -20.58328,-9.21546 -20.58328,-20.58328z"/><path d="M283.12858,3.87233c0,-11.36784 9.21545,-20.58325 20.58328,-20.58325c11.36784,0 20.58328,9.21545 20.58328,20.58328c0,11.36784 -9.21545,20.58328 -20.58328,20.58328c-11.36784,0 -20.58328,-9.21545 -20.58328,-20.58328z"/><path d="M43.86934,115.37178c0,-11.36784 9.21546,-20.58325 20.58328,-20.58325c11.36784,0 20.58328,9.21544 20.58328,20.58328c0,11.36785 -9.21545,20.58328 -20.58326,20.58328c-11.36784,0 -20.58328,-9.21544 -20.58328,-20.58328z"/><path d="M394.62805,244.06076c0,-11.36783 9.21546,-20.58328 20.5833,-20.58328c11.36785,0 20.58328,9.21545 20.58328,20.5833c0,11.36783 -9.21545,20.5833 -20.58328,20.5833c-11.36785,0 -20.5833,-9.21546 -20.5833,-20.5833z"/><path d="M154.90419,355.09566c0,-11.36784 9.21546,-20.58328 20.58328,-20.58328c11.36783,0 20.58328,9.21545 20.58328,20.58328c0,11.36784 -9.21545,20.58328 -20.58325,20.58328c-11.36783,0 -20.58328,-9.21546 -20.58328,-20.58328z"/></g></g></svg>