<svg version="1.1" xmlns="http://www.w3.org/2000/svg" xmlns:xlink="http://www.w3.org/1999/xlink" width="363.51904" height="360.33071" viewBox="0,0,363.51904,360.33071"><g transform="translate(-54.94455,3.81196)"><g data-paper-data="{&quot;isPaintingLayer&quot;:true}" fill-rule="nonzero" stroke="#ffffff" stroke-linecap="butt" stroke-linejoin="miter" stroke-miterlimit="10" stroke-dasharray="" stroke-dashoffset="0" style="mix-blend-mode: normal"><path d="M75.5,180c0,-90.85084 73.64916,-164.5 164.5,-164.5c90.85084,0 164.5,73.64916 164.5,164.5c0,90.85084 -73.64916,164.5 -164.5,164.5c-90.85084,0 -164.5,-73.64916 -164.5,-164.5z" fill-opacity="0" fill="#ffffff" stroke-width="2.5"/><path d="M299.1076,328.6959c0,-4.75162 3.85195,-8.60356 8.60356,-8.60356c4.75162,0 8.60356,3.85194 8.60356,8.60356c0,4.75162 -3.85194,8.60356 -8.60356,8.60356c-4.75162,0 -8.60356,-3.85195 -8.60356,-8.60356z" fill="#ffffff" stroke-width="2"/><path d="M81.81269,249.60544c0,-4.75161 3.85195,-8.60355 8.60356,-8.60355c4.75162,0 8.60356,3.85194 8.60356,8.60356c0,4.75161 -3.85194,8.60356 -8.60355,8.60356c-4.75162,0 -8.60356,-3.85195 -8.60356,-8.60356z" fill="#ffffff" stroke-width="2"/><path d="M378.60575,110.58562c0,-4.75162 3.85194,-8.60355 8.60356,-8.60355c4.75162,0 8.60356,3.85194 8.60356,8.60356c0,4.75162 -3.85194,8.60356 -8.60356,8.60356c-4.75162,0 -8.60356,-3.85195 -8.60356,-8.60356z" fill="#ffffff" stroke-width="2"/><path d="M162.94156,31.08748c0,-4.75162 3.85195,-8.60355 8.60356,-8.60355c4.75161,0 8.60356,3.85194 8.60356,8.60356c0,4.75161 -3.85194,8.60356 -8.60355,8.60356c-4.75161,0 -8.60356,-3.85195 -8.60356,-8.60356z" fill="#ffffff" stroke-width="2"/><path d="M287.2848,25.37992c0,-4.75162 3.85194,-8.60355 8.60356,-8.60355c4.75162,0 8.60356,3.85194 8.60356,8.60356c0,4.75162 -3.85194,8.60356 -8.60356,8.60356c-4.75162,0 -8.60356,-3.85194 -8.60356,-8.60356z" fill="#ffffff" stroke-width="2"/><path d="M77.32817,123.22378c0,-4.75162 3.85195,-8.60355 8.60356,-8.60355c4.75162,0 8.60356,3.85194 8.60356,8.60356c0,4.75162 -3.85194,8.60356 -8.60355,8.60356c-4.75162,0 -8.60356,-3.85194 -8.60356,-8.60356z" fill="#ffffff" stroke-width="2"/><path d="M385.12867,236.15191c0,-4.75161 3.85195,-8.60355 8.60356,-8.60355c4.75162,0 8.60355,3.85194 8.60355,8.60356c0,4.75161 -3.85194,8.60356 -8.60355,8.60356c-4.75162,0 -8.60356,-3.85195 -8.60356,-8.60356z" fill="#ffffff" stroke-width="2"/><path d="M174.76435,333.5881c0,-4.75162 3.85195,-8.60356 8.60356,-8.60356c4.75161,0 8.60356,3.85194 8.60356,8.60356c0,4.75162 -3.85194,8.60356 -8.60355,8.60356c-4.75161,0 -8.60356,-3.85195 -8.60356,-8.60356z" fill="#ffffff" stroke-width="2"/><text transform="translate(148.14622,17.93804) scale(0.5,0.5)" font-size="40" xml:space="preserve" fill="#ffffff" fill-rule="nonzero" stroke="#ffffff" stroke-width="1" stroke-linecap="butt" stroke-linejoin="miter" stroke-miterlimit="10" stroke-dasharray="" stroke-dashoffset="0" font-family="Sans Serif" font-weight="normal" text-anchor="start" style="mix-blend-mode: normal"><tspan x="0" dy="0">5</tspan></text><text transform="translate(311.21933,17.93804) scale(0.5,0.5)" font-size="40" xml:space="preserve" fill="#ffffff" fill-rule="nonzero" stroke="#ffffff" stroke-width="1" stroke-linecap="butt" stroke-linejoin="miter" stroke-miterlimit="10" stroke-dasharray="" stroke-dashoffset="0" font-family="Sans Serif" font-weight="normal" text-anchor="start" style="mix-blend-mode: normal"><tspan x="0" dy="0">7</tspan></text><text transform="translate(55.19455,128.99253) scale(0.5,0.5)" font-size="40" xml:space="preserve" fill="#ffffff" fill-rule="nonzero" stroke="#ffffff" stroke-width="1" stroke-linecap="butt" stroke-linejoin="miter" stroke-miterlimit="10" stroke-dasharray="" stroke-dashoffset="0" font-family="Sans Serif" font-weight="normal" text-anchor="start" style="mix-blend-mode: normal"><tspan x="0" dy="0">R</tspan></text><text transform="translate(402.94796,116.35437) scale(0.5,0.5)" font-size="40" xml:space="preserve" fill="#ffffff" fill-rule="nonzero" stroke="#ffffff" stroke-width="1" stroke-linecap="butt" stroke-linejoin="miter" stroke-miterlimit="10" stroke-dasharray="" stroke-dashoffset="0" font-family="Sans Serif" font-weight="normal" text-anchor="start" style="mix-blend-mode: normal"><tspan x="0" dy="0">U</tspan></text><text transform="translate(60.49442,255.37419) scale(0.5,0.5)" font-size="40" xml:space="preserve" fill="#ffffff" fill-rule="nonzero" stroke="#ffffff" stroke-width="1" stroke-linecap="butt" stroke-linejoin="miter" stroke-miterlimit="10" stroke-dasharray="" stroke-dashoffset="0" font-family="Sans Serif" font-weight="normal" text-anchor="start" style="mix-blend-mode: normal"><tspan x="0" dy="0">F</tspan></text><text transform="translate(411.10161,241.92066) scale(0.5,0.5)" font-size="40" xml:space="preserve" fill="#ffffff" fill-rule="nonzero" stroke="#ffffff" stroke-width="1" stroke-linecap="butt" stroke-linejoin="miter" stroke-miterlimit="10" stroke-dasharray="" stroke-dashoffset="0" font-family="Sans Serif" font-weight="normal" text-anchor="start" style="mix-blend-mode: normal"><tspan x="0" dy="0">J</tspan></text><text transform="translate(151.02101,350.26875) scale(0.5,0.5)" font-size="40" xml:space="preserve" fill="#ffffff" fill-rule="nonzero" stroke="#ffffff" stroke-width="1" stroke-linecap="butt" stroke-linejoin="miter" stroke-miterlimit="10" stroke-dasharray="" stroke-dashoffset="0" font-family="Sans Serif" font-weight="normal" text-anchor="start" style="mix-blend-mode: normal"><tspan x="0" dy="0">V</tspan></text><text transform="translate(321.59239,350.26875) scale(0.5,0.5)" font-size="40" xml:space="preserve" fill="#ffffff" fill-rule="nonzero" stroke="#ffffff" stroke-width="1" stroke-linecap="butt" stroke-linejoin="miter" stroke-miterlimit="10" stroke-dasharray="" stroke-dashoffset="0" font-family="Sans Serif" font-weight="normal" text-anchor="start" style="mix-blend-mode: normal"><tspan x="0" dy="0">N</tspan></text></g></g></svg>