<svg version="1.1" xmlns="http://www.w3.org/2000/svg" xmlns:xlink="http://www.w3.org/1999/xlink" width="527.5" height="124.64432" viewBox="0,0,527.5,124.64432"><g transform="translate(23.75,-265.77234)"><g data-paper-data="{&quot;isPaintingLayer&quot;:true}" fill-rule="nonzero" stroke="none" stroke-linecap="butt" stroke-linejoin="miter" stroke-miterlimit="10" stroke-dasharray="" stroke-dashoffset="0" style="mix-blend-mode: normal"><path d="M-23.75,390.41667v-107.5c0,0 79.59654,21.66667 135,21.66667c44.25584,0 123.0103,-32.8932 203.41544,-37.82922c94.86333,-5.8236 189.08456,16.16255 189.08456,16.16255v107.5z" fill="#ff5188" stroke-width="0"/><text transform="translate(19.13866,342.70834) scale(0.5,0.5)" font-size="40" xml:space="preserve" fill="#000000" fill-rule="nonzero" stroke="none" stroke-width="1" stroke-linecap="butt" stroke-linejoin="miter" stroke-miterlimit="10" stroke-dasharray="" stroke-dashoffset="0" font-family="Sans Serif" font-weight="normal" text-anchor="start" style="mix-blend-mode: normal"><tspan x="0" dy="0">Restart game to retry</tspan></text><path d="M364.875,352.47757v-30h50v30z" fill="#a5a5a5" stroke-width="0"/><path d="M439.56343,352.47757v-30h28v30z" fill="#a5a5a5" stroke-width="0"/><path d="M364.875,350.9391v-30h50v30z" fill="#ffffff" stroke-width="0"/><text transform="translate(370.30109,340.71361) scale(0.41383,0.41383)" font-size="40" xml:space="preserve" fill="#000000" fill-rule="nonzero" stroke="none" stroke-width="1" stroke-linecap="butt" stroke-linejoin="miter" stroke-miterlimit="10" stroke-dasharray="" stroke-dashoffset="0" font-family="Sans Serif" font-weight="normal" text-anchor="start" style="mix-blend-mode: normal"><tspan x="0" dy="0">CTRL</tspan></text><text transform="translate(421.45677,341.70785) scale(0.5,0.5)" font-size="40" xml:space="preserve" fill="#000000" fill-rule="nonzero" stroke="none" stroke-width="1" stroke-linecap="butt" stroke-linejoin="miter" stroke-miterlimit="10" stroke-dasharray="" stroke-dashoffset="0" font-family="Sans Serif" font-weight="normal" text-anchor="start" style="mix-blend-mode: normal"><tspan x="0" dy="0">+</tspan></text><path d="M439.56343,350.9391v-30h28v30z" fill="#ffffff" stroke-width="0"/><text transform="translate(448.32441,340.71361) scale(0.41383,0.41383)" font-size="40" xml:space="preserve" fill="#000000" fill-rule="nonzero" stroke="none" stroke-width="1" stroke-linecap="butt" stroke-linejoin="miter" stroke-miterlimit="10" stroke-dasharray="" stroke-dashoffset="0" font-family="Sans Serif" font-weight="normal" text-anchor="start" style="mix-blend-mode: normal"><tspan x="0" dy="0">R</tspan></text></g></g></svg>