<svg version="1.1" xmlns="http://www.w3.org/2000/svg" xmlns:xlink="http://www.w3.org/1999/xlink" width="333.38739" height="333.80545" viewBox="0,0,333.38739,333.80545"><g transform="translate(-73.13827,-12.58129)"><g data-paper-data="{&quot;isPaintingLayer&quot;:true}" fill="#ffffff" fill-rule="nonzero" stroke="#ffffff" stroke-width="2" stroke-linecap="butt" stroke-linejoin="miter" stroke-miterlimit="10" stroke-dasharray="" stroke-dashoffset="0" style="mix-blend-mode: normal"><path d="M301.57416,332.50153c0,-4.34552 3.52275,-7.86825 7.86825,-7.86825c4.34552,0 7.86825,3.52274 7.86825,7.86825c0,4.34552 -3.52274,7.86825 -7.86825,7.86825c-4.34552,0 -7.86825,-3.52275 -7.86825,-7.86825z"/><path d="M78.73719,251.39387c0,-4.34552 3.52275,-7.86824 7.86826,-7.86824c4.34552,0 7.86826,3.52274 7.86826,7.86826c0,4.34552 -3.52274,7.86825 -7.86824,7.86825c-4.34552,0 -7.86826,-3.52275 -7.86826,-7.86825z"/><path d="M383.09989,108.82839c0,-4.34552 3.52274,-7.86824 7.86825,-7.86824c4.34552,0 7.86825,3.52274 7.86825,7.86825c0,4.34552 -3.52274,7.86825 -7.86825,7.86825c-4.34552,0 -7.86825,-3.52275 -7.86825,-7.86825z"/><path d="M161.93521,27.30265c0,-4.34552 3.52275,-7.86824 7.86826,-7.86824c4.34552,0 7.86825,3.52274 7.86825,7.86826c0,4.34552 -3.52274,7.86826 -7.86824,7.86826c-4.34552,0 -7.86826,-3.52275 -7.86826,-7.86826z"/><path d="M289.44981,21.44953c0,-4.34552 3.52274,-7.86824 7.86826,-7.86824c4.34552,0 7.86825,3.52274 7.86825,7.86826c0,4.34552 -3.52274,7.86826 -7.86825,7.86826c-4.34552,0 -7.86826,-3.52274 -7.86826,-7.86826z"/><path d="M74.13827,121.78888c0,-4.34552 3.52275,-7.86824 7.86826,-7.86824c4.34552,0 7.86826,3.52274 7.86826,7.86825c0,4.34552 -3.52274,7.86826 -7.86824,7.86826c-4.34552,0 -7.86826,-3.52274 -7.86826,-7.86826z"/><path d="M389.78916,237.59722c0,-4.34552 3.52275,-7.86824 7.86826,-7.86824c4.34552,0 7.86824,3.52274 7.86824,7.86825c0,4.34552 -3.52274,7.86826 -7.86824,7.86826c-4.34552,0 -7.86826,-3.52275 -7.86826,-7.86826z"/><path d="M174.05955,337.51849c0,-4.34552 3.52275,-7.86825 7.86825,-7.86825c4.34552,0 7.86825,3.52274 7.86825,7.86825c0,4.34552 -3.52274,7.86825 -7.86824,7.86825c-4.34552,0 -7.86826,-3.52275 -7.86826,-7.86825z"/><path d="M298.91252,325.90513c0,-4.15819 3.37089,-7.52906 7.52906,-7.52906c4.15819,0 7.52906,3.37087 7.52906,7.52906c0,4.15819 -3.37087,7.52906 -7.52906,7.52906c-4.15819,0 -7.52906,-3.37089 -7.52906,-7.52906z"/><path d="M85.68179,248.29392c0,-4.15819 3.37089,-7.52905 7.52907,-7.52905c4.15819,0 7.52907,3.37088 7.52907,7.52907c0,4.15819 -3.37088,7.52906 -7.52905,7.52906c-4.15819,0 -7.52907,-3.37088 -7.52907,-7.52906z"/><path d="M376.92378,111.87426c0,-4.15819 3.37088,-7.52905 7.52906,-7.52905c4.15819,0 7.52906,3.37087 7.52906,7.52906c0,4.15819 -3.37087,7.52906 -7.52906,7.52906c-4.15819,0 -7.52906,-3.37089 -7.52906,-7.52906z"/><path d="M165.29325,33.86301c0,-4.15819 3.37089,-7.52905 7.52907,-7.52905c4.15819,0 7.52906,3.37088 7.52906,7.52907c0,4.15819 -3.37087,7.52907 -7.52905,7.52907c-4.15819,0 -7.52907,-3.37089 -7.52907,-7.52907z"/><path d="M287.31085,28.26221c0,-4.15819 3.37087,-7.52905 7.52907,-7.52905c4.15819,0 7.52906,3.37088 7.52906,7.52907c0,4.15819 -3.37088,7.52907 -7.52906,7.52907c-4.15819,0 -7.52907,-3.37087 -7.52907,-7.52907z"/><path d="M81.28113,124.27604c0,-4.15819 3.37088,-7.52905 7.52907,-7.52905c4.15819,0 7.52907,3.37087 7.52907,7.52906c0,4.15819 -3.37087,7.52907 -7.52905,7.52907c-4.15819,0 -7.52907,-3.37088 -7.52907,-7.52907z"/><path d="M383.32468,235.09203c0,-4.15819 3.37089,-7.52905 7.52907,-7.52905c4.15819,0 7.52905,3.37088 7.52905,7.52906c0,4.15819 -3.37087,7.52907 -7.52905,7.52907c-4.15819,0 -7.52907,-3.37088 -7.52907,-7.52907z"/><path d="M176.89493,330.70581c0,-4.15819 3.37088,-7.52906 7.52906,-7.52906c4.15819,0 7.52906,3.37087 7.52906,7.52906c0,4.15819 -3.37088,7.52906 -7.52905,7.52906c-4.15819,0 -7.52907,-3.37089 -7.52907,-7.52906z"/></g></g></svg>