<svg version="1.1" xmlns="http://www.w3.org/2000/svg" xmlns:xlink="http://www.w3.org/1999/xlink" width="32.90899" height="33.10885" viewBox="0,0,32.90899,33.10885"><defs><radialGradient cx="246.04894" cy="172.21094" r="31.9049" gradientUnits="userSpaceOnUse" id="color-1"><stop offset="0" stop-color="#61fff0"/><stop offset="1" stop-color="#00d9a1"/></radialGradient><radialGradient cx="240.06416" cy="179.96187" r="4.29554" gradientUnits="userSpaceOnUse" id="color-2"><stop offset="0" stop-color="#61fff0"/><stop offset="1" stop-color="#00d9a1"/></radialGradient></defs><g transform="translate(-223.91868,-163.22383)"><g data-paper-data="{&quot;isPaintingLayer&quot;:true}" fill-rule="nonzero" stroke="none" stroke-linecap="butt" stroke-linejoin="miter" stroke-miterlimit="10" stroke-dasharray="" stroke-dashoffset="0" style="mix-blend-mode: normal"><path d="M227.98057,180.26435c0,-3.64056 -5.50348,-7.44558 -3.69829,-10.31524c1.72433,-2.74112 4.14304,-5.00138 7.00936,-6.53398c2.61425,-1.39783 5.68917,5.32312 8.86087,5.32312c3.23738,0 6.19357,-6.68778 8.84615,-5.2355c3.26422,1.78717 5.93488,4.52322 7.64093,7.83711c1.31404,2.55244 -4.68803,6.20299 -4.68803,9.27148c0,3.44421 5.80929,5.91483 4.17991,8.68272c-1.64959,2.80221 -4.01134,5.13496 -6.83646,6.74944c-2.72116,1.55507 -5.98764,-3.66844 -9.34626,-3.66844c-3.43559,0 -6.53856,5.18231 -9.3018,3.56047c-2.38752,-1.40131 -4.43525,-3.31918 -5.98969,-5.60012c-2.03479,-2.98578 3.32332,-10.07106 3.32332,-10.07106zM239.8924,192.27798c6.51685,0 11.96216,-5.12058 11.96216,-11.63743c0,-6.51685 -5.28294,-11.79979 -11.79979,-11.79979c-6.51685,0 -11.79979,5.28294 -11.79979,11.79979c0,6.51685 5.12058,11.63743 11.63743,11.63743z" fill="url(#color-1)" stroke-width="1"/><path d="M235.76862,179.96187c0,-2.37235 1.92318,-4.29554 4.29554,-4.29554c2.37235,0 4.29554,1.92318 4.29554,4.29554c0,2.37235 -1.92318,4.29554 -4.29554,4.29554c-2.37235,0 -4.29554,-1.92318 -4.29554,-4.29554z" fill="url(#color-2)" stroke-width="0"/></g></g></svg>