<svg version="1.1" xmlns="http://www.w3.org/2000/svg" xmlns:xlink="http://www.w3.org/1999/xlink" width="357.60355" height="358.04603" viewBox="0,0,357.60355,358.04603"><g transform="translate(-61.0302,-0.461)"><g data-paper-data="{&quot;isPaintingLayer&quot;:true}" fill="#ffffff" fill-rule="nonzero" stroke="#ffffff" stroke-width="2" stroke-linecap="butt" stroke-linejoin="miter" stroke-miterlimit="10" stroke-dasharray="" stroke-dashoffset="0" style="mix-blend-mode: normal"><path d="M295.3235,322.33125c0,-5.24244 4.24984,-9.49227 9.49227,-9.49227c5.24244,0 9.49227,4.24983 9.49227,9.49227c0,5.24244 -4.24983,9.49227 -9.49227,9.49227c-5.24244,0 -9.49227,-4.24984 -9.49227,-9.49227z"/><path d="M87.29733,246.61439c0,-5.24243 4.24984,-9.49225 9.49227,-9.49225c5.24244,0 9.49227,4.24983 9.49227,9.49227c0,5.24243 -4.24983,9.49227 -9.49225,9.49227c-5.24244,0 -9.49227,-4.24984 -9.49227,-9.49227z"/><path d="M371.43064,113.52448c0,-5.24244 4.24983,-9.49225 9.49227,-9.49225c5.24244,0 9.49227,4.24983 9.49227,9.49227c0,5.24244 -4.24983,9.49227 -9.49227,9.49227c-5.24244,0 -9.49227,-4.24984 -9.49227,-9.49227z"/><path d="M164.96564,37.41735c0,-5.24244 4.24984,-9.49225 9.49227,-9.49225c5.24243,0 9.49227,4.24983 9.49227,9.49227c0,5.24243 -4.24983,9.49227 -9.49225,9.49227c-5.24243,0 -9.49227,-4.24984 -9.49227,-9.49227z"/><path d="M284.005,31.95324c0,-5.24244 4.24983,-9.49225 9.49227,-9.49225c5.24244,0 9.49227,4.24983 9.49227,9.49227c0,5.24244 -4.24983,9.49227 -9.49227,9.49227c-5.24244,0 -9.49227,-4.24983 -9.49227,-9.49227z"/><path d="M83.0041,125.62356c0,-5.24244 4.24984,-9.49225 9.49227,-9.49225c5.24244,0 9.49227,4.24983 9.49227,9.49227c0,5.24244 -4.24983,9.49227 -9.49225,9.49227c-5.24244,0 -9.49227,-4.24983 -9.49227,-9.49227z"/><path d="M377.67531,233.73472c0,-5.24243 4.24984,-9.49226 9.49228,-9.49226c5.24244,0 9.49226,4.24983 9.49226,9.49228c0,5.24243 -4.24983,9.49228 -9.49226,9.49228c-5.24244,0 -9.49228,-4.24984 -9.49228,-9.49228z"/><path d="M176.28413,327.01477c0,-5.24244 4.24984,-9.49227 9.49227,-9.49227c5.24243,0 9.49227,4.24983 9.49227,9.49227c0,5.24244 -4.24983,9.49227 -9.49225,9.49227c-5.24243,0 -9.49227,-4.24984 -9.49227,-9.49227z"/><path d="M302.74484,341.4354c0,-5.94356 4.8182,-10.76174 10.76174,-10.76174c5.94356,0 10.76174,4.81819 10.76174,10.76174c0,5.94356 -4.81819,10.76174 -10.76174,10.76174c-5.94356,0 -10.76174,-4.8182 -10.76174,-10.76174z"/><path d="M66.8976,255.5923c0,-5.94354 4.81821,-10.76172 10.76175,-10.76172c5.94356,0 10.76174,4.81819 10.76174,10.76174c0,5.94354 -4.8182,10.76174 -10.76173,10.76174c-5.94356,0 -10.76174,-4.8182 -10.76174,-10.76174z"/><path d="M389.03043,104.70317c0,-5.94356 4.81819,-10.76173 10.76174,-10.76173c5.94356,0 10.76174,4.81819 10.76174,10.76174c0,5.94356 -4.81819,10.76174 -10.76174,10.76174c-5.94356,0 -10.76174,-4.8182 -10.76174,-10.76174z"/><path d="M154.95314,18.41759c0,-5.94356 4.8182,-10.76173 10.76174,-10.76173c5.94354,0 10.76174,4.81819 10.76174,10.76174c0,5.94354 -4.81819,10.76174 -10.76172,10.76174c-5.94354,0 -10.76175,-4.8182 -10.76175,-10.76174z"/><path d="M289.91263,12.22272c0,-5.94356 4.81819,-10.76172 10.76174,-10.76172c5.94356,0 10.76174,4.81819 10.76174,10.76174c0,5.94356 -4.81819,10.76174 -10.76174,10.76174c-5.94356,0 -10.76174,-4.81819 -10.76174,-10.76174z"/><path d="M62.0302,118.42035c0,-5.94356 4.8182,-10.76172 10.76174,-10.76172c5.94356,0 10.76174,4.81819 10.76174,10.76174c0,5.94356 -4.81819,10.76174 -10.76172,10.76174c-5.94356,0 -10.76174,-4.81819 -10.76174,-10.76174z"/><path d="M396.11026,240.99013c0,-5.94354 4.8182,-10.76173 10.76176,-10.76173c5.94356,0 10.76173,4.81819 10.76173,10.76176c0,5.94354 -4.81819,10.76176 -10.76173,10.76176c-5.94356,0 -10.76176,-4.8182 -10.76176,-10.76176z"/><path d="M167.78534,346.74529c0,-5.94356 4.8182,-10.76174 10.76174,-10.76174c5.94354,0 10.76174,4.81819 10.76174,10.76174c0,5.94356 -4.81819,10.76174 -10.76172,10.76174c-5.94354,0 -10.76174,-4.8182 -10.76174,-10.76174z"/></g></g></svg>