<svg version="1.1" xmlns="http://www.w3.org/2000/svg" xmlns:xlink="http://www.w3.org/1999/xlink" width="100.52881" height="45" viewBox="0,0,100.52881,45"><defs><radialGradient cx="274.51963" cy="187.2275" r="41.6551" gradientUnits="userSpaceOnUse" id="color-1"><stop offset="0" stop-color="#ff4fec"/><stop offset="1" stop-color="#b100ff"/></radialGradient><radialGradient cx="261.625" cy="180" r="5.1875" gradientUnits="userSpaceOnUse" id="color-2"><stop offset="0" stop-color="#ff4fec"/><stop offset="1" stop-color="#b100ff"/></radialGradient></defs><g transform="translate(-240.075,-157.5)"><g data-paper-data="{&quot;isPaintingLayer&quot;:true}" fill-rule="nonzero" stroke-linecap="butt" stroke-linejoin="miter" stroke-miterlimit="10" stroke-dasharray="" stroke-dashoffset="0" style="mix-blend-mode: normal"><path d="M264.4,157.5c13.43432,0 24.325,22.5 24.325,22.5c0,0 -10.89068,22.5 -24.325,22.5c-13.43432,0 -24.325,-10.0736 -24.325,-22.5c0,-12.4264 10.89068,-22.5 24.325,-22.5zM261.7125,192.8125c6.90356,0 12.5,-5.59644 12.5,-12.5c0,-6.90356 -5.59644,-12.5 -12.5,-12.5c-6.90356,0 -12.5,5.59644 -12.5,12.5c0,6.90356 5.59644,12.5 12.5,12.5z" fill="url(#color-1)" stroke="none" stroke-width="1"/><path d="M256.4375,180c0,-2.86497 2.32253,-5.1875 5.1875,-5.1875c2.86497,0 5.1875,2.32253 5.1875,5.1875c0,2.86497 -2.32253,5.1875 -5.1875,5.1875c-2.86497,0 -5.1875,-2.32253 -5.1875,-5.1875z" fill="url(#color-2)" stroke="none" stroke-width="0"/><path d="M278.57256,202.50001v-45h62.03125v45z" fill-opacity="0.00806" fill="#ffffff" stroke="#000000" stroke-width="0"/></g></g></svg>