<svg version="1.1" xmlns="http://www.w3.org/2000/svg" xmlns:xlink="http://www.w3.org/1999/xlink" width="323.64484" height="324.05564" viewBox="0,0,323.64484,324.05564"><g transform="translate(-78.00955,-17.45623)"><g data-paper-data="{&quot;isPaintingLayer&quot;:true}" fill="#ffffff" fill-rule="nonzero" stroke="#ffffff" stroke-width="2" stroke-linecap="butt" stroke-linejoin="miter" stroke-miterlimit="10" stroke-dasharray="" stroke-dashoffset="0" style="mix-blend-mode: normal"><path d="M302.47674,329.55512c0,-3.17619 2.57481,-5.75099 5.75099,-5.75099c3.17619,0 5.75099,2.57481 5.75099,5.75099c0,3.17619 -2.57481,5.75099 -5.75099,5.75099c-3.17619,0 -5.75099,-2.57481 -5.75099,-5.75099z"/><path d="M83.5282,250.13909c0,-3.17619 2.57482,-5.75098 5.751,-5.75098c3.17619,0 5.751,2.57481 5.751,5.751c0,3.17619 -2.5748,5.75098 -5.75098,5.75098c-3.17619,0 -5.751,-2.57481 -5.751,-5.75098z"/><path d="M382.57985,110.06132c0,-3.1762 2.57481,-5.75099 5.75099,-5.75099c3.1762,0 5.751,2.57481 5.751,5.75099c0,3.1762 -2.57481,5.751 -5.751,5.751c-3.1762,0 -5.75099,-2.57482 -5.75099,-5.751z"/><path d="M165.27446,29.95821c0,-3.17618 2.57481,-5.75098 5.75099,-5.75098c3.17618,0 5.75099,2.57481 5.75099,5.75099c0,3.17618 -2.57481,5.75099 -5.75098,5.75099c-3.17618,0 -5.75099,-2.57482 -5.75099,-5.75099z"/><path d="M290.56398,24.2072c0,-3.17619 2.57481,-5.75097 5.75099,-5.75097c3.17619,0 5.75098,2.57481 5.75098,5.75099c0,3.17619 -2.5748,5.75099 -5.75098,5.75099c-3.17619,0 -5.75099,-2.57481 -5.75099,-5.75099z"/><path d="M79.00955,123.07197c0,-3.17619 2.57482,-5.75098 5.751,-5.75098c3.17619,0 5.751,2.57481 5.751,5.75098c0,3.17619 -2.57481,5.751 -5.75098,5.751c-3.17619,0 -5.75099,-2.57481 -5.75099,-5.751z"/><path d="M389.15242,236.58318c0,-3.17618 2.57481,-5.75098 5.75099,-5.75098c3.17618,0 5.75098,2.5748 5.75098,5.75099c0,3.17618 -2.5748,5.75099 -5.75098,5.75099c-3.17618,0 -5.75099,-2.57481 -5.75099,-5.75099z"/><path d="M177.18723,334.76087c0,-3.17619 2.57481,-5.75099 5.75099,-5.75099c3.1762,0 5.75099,2.57481 5.75099,5.75099c0,3.17619 -2.57481,5.75099 -5.75099,5.75099c-3.1762,0 -5.75099,-2.57481 -5.75099,-5.75099z"/></g></g></svg>