<svg version="1.1" xmlns="http://www.w3.org/2000/svg" xmlns:xlink="http://www.w3.org/1999/xlink" width="45" height="45" viewBox="0,0,45,45"><defs><radialGradient cx="247.7275" cy="171.1396" r="38.5299" gradientUnits="userSpaceOnUse" id="color-1"><stop offset="0" stop-color="#ff4fec"/><stop offset="1" stop-color="#b100ff"/></radialGradient><radialGradient cx="240" cy="180" r="5.1875" gradientUnits="userSpaceOnUse" id="color-2"><stop offset="0" stop-color="#ff4fec"/><stop offset="1" stop-color="#b100ff"/></radialGradient></defs><g transform="translate(-218,-158)"><g data-paper-data="{&quot;isPaintingLayer&quot;:true}" fill-rule="nonzero" stroke="none" stroke-linecap="butt" stroke-linejoin="miter" stroke-miterlimit="10" stroke-dasharray="" stroke-dashoffset="0" style="mix-blend-mode: normal"><path d="M218,180.5c0,-12.42641 10.07359,-22.5 22.5,-22.5c12.42641,0 22.5,10.07359 22.5,22.5c0,12.42641 -10.07359,22.5 -22.5,22.5c-12.42641,0 -22.5,-10.07359 -22.5,-22.5zM240.62784,194.81392c7.87006,0 14.25,-6.37994 14.25,-14.25c0,-7.87006 -6.37994,-14.25 -14.25,-14.25c-7.87006,0 -14.25,6.37994 -14.25,14.25c0,7.87006 6.37994,14.25 14.25,14.25z" fill="url(#color-1)" stroke-width="1"/><path d="M234.8125,180c0,-2.86497 2.32253,-5.1875 5.1875,-5.1875c2.86497,0 5.1875,2.32253 5.1875,5.1875c0,2.86497 -2.32253,5.1875 -5.1875,5.1875c-2.86497,0 -5.1875,-2.32253 -5.1875,-5.1875z" fill="url(#color-2)" stroke-width="0"/></g></g></svg>