<svg version="1.1" xmlns="http://www.w3.org/2000/svg" xmlns:xlink="http://www.w3.org/1999/xlink" width="403.70896" height="258.74749" viewBox="0,0,403.70896,258.74749"><defs><radialGradient cx="-12.8165" cy="36.07242" r="19.26495" gradientUnits="userSpaceOnUse" id="color-1"><stop offset="0" stop-color="#ff4fec"/><stop offset="1" stop-color="#b100ff"/></radialGradient><radialGradient cx="-16.68025" cy="40.50263" r="2.59375" gradientUnits="userSpaceOnUse" id="color-2"><stop offset="0" stop-color="#ff4fec"/><stop offset="1" stop-color="#b100ff"/></radialGradient><radialGradient cx="42.45987" cy="63.24575" r="31.61818" gradientUnits="userSpaceOnUse" id="color-3"><stop offset="0" stop-color="#ffb900"/><stop offset="1" stop-color="#d87900"/></radialGradient><radialGradient cx="36.52888" cy="70.92703" r="4.25694" gradientUnits="userSpaceOnUse" id="color-4"><stop offset="0" stop-color="#ffb900"/><stop offset="1" stop-color="#d87900"/></radialGradient><radialGradient cx="-80.05016" cy="108.35603" r="31.61818" gradientUnits="userSpaceOnUse" id="color-5"><stop offset="0" stop-color="#ff4fec"/><stop offset="1" stop-color="#b100ff"/></radialGradient><radialGradient cx="-86.39146" cy="115.627" r="4.25694" gradientUnits="userSpaceOnUse" id="color-6"><stop offset="0" stop-color="#ff4fec"/><stop offset="1" stop-color="#b100ff"/></radialGradient><radialGradient cx="58.65157" cy="121.96829" r="34.18277" gradientUnits="userSpaceOnUse" id="color-7"><stop offset="0" stop-color="#ff4fec"/><stop offset="1" stop-color="#b100ff"/></radialGradient><radialGradient cx="48.07006" cy="116.03731" r="4.25694" gradientUnits="userSpaceOnUse" id="color-8"><stop offset="0" stop-color="#ff4fec"/><stop offset="1" stop-color="#b100ff"/></radialGradient></defs><g transform="translate(120.27143,62.24739)"><g data-paper-data="{&quot;isPaintingLayer&quot;:true}" fill-rule="nonzero" stroke-linecap="butt" stroke-linejoin="miter" stroke-miterlimit="10" stroke-dasharray="" stroke-dashoffset="0" style="mix-blend-mode: normal"><path d="M197.81461,196.5001v-32.99994h84.37095v32.99994z" fill-opacity="0.51613" fill="#f12c3a" stroke="none" stroke-width="0"/><text transform="translate(214.45321,184.47659) scale(0.37304,0.37304)" font-size="40" xml:space="preserve" fill="#f2f2f2" fill-rule="nonzero" stroke="none" stroke-width="1" stroke-linecap="butt" stroke-linejoin="miter" stroke-miterlimit="10" stroke-dasharray="" stroke-dashoffset="0" font-family="Sans Serif" font-weight="normal" text-anchor="start" style="mix-blend-mode: normal"><tspan x="0" dy="0">❔ Help</tspan></text><path d="M-120.27143,143.75261v-206h403.70896v206z" fill-opacity="0.51613" fill="#f12c3a" stroke="none" stroke-width="0"/><text transform="translate(-112.72215,-39.44951) scale(0.45807,0.45807)" font-size="40" xml:space="preserve" fill="#f2f2f2" fill-rule="nonzero" stroke="none" stroke-width="1" stroke-linecap="butt" stroke-linejoin="miter" stroke-miterlimit="10" stroke-dasharray="" stroke-dashoffset="0" font-family="Sans Serif" font-weight="normal" text-anchor="start" style="mix-blend-mode: normal"><tspan x="0" dy="0">How to play?</tspan></text><path d="M-104.0356,30.01336c0,-30.94513 25.08598,-56.0311 56.0311,-56.0311c30.94513,0 56.0311,25.086 56.0311,56.0311c0,30.94513 -25.08598,56.0311 -56.03109,56.0311c-30.94513,0 -56.0311,-25.08598 -56.0311,-56.03109z" fill-opacity="0" fill="#ffffff" stroke="#ffffff" stroke-width="2.5"/><path d="M-27.87158,80.66134c0,-1.61846 1.31204,-2.9305 2.9305,-2.9305c1.61846,0 2.9305,1.31204 2.9305,2.9305c0,1.61846 -1.31204,2.93051 -2.9305,2.93051c-1.61846,0 -2.9305,-1.31204 -2.9305,-2.93051z" fill="#ffffff" stroke="#ffffff" stroke-width="2"/><path d="M-101.88541,53.72198c0,-1.61847 1.31204,-2.9305 2.93051,-2.9305c1.61846,0 2.9305,1.31202 2.9305,2.9305c0,1.61847 -1.31204,2.93051 -2.9305,2.93051c-1.61846,0 -2.93051,-1.31204 -2.93051,-2.93051z" fill="#ffffff" stroke="#ffffff" stroke-width="2"/><path d="M-0.79334,6.3698c0,-1.61846 1.31204,-2.9305 2.93051,-2.9305c1.61846,0 2.9305,1.31204 2.9305,2.9305c0,1.61846 -1.31202,2.9305 -2.9305,2.9305c-1.61847,0 -2.93051,-1.31204 -2.93051,-2.9305z" fill="#ffffff" stroke="#ffffff" stroke-width="2"/><path d="M-74.25171,-20.70844c0,-1.61847 1.31202,-2.9305 2.9305,-2.9305c1.61847,0 2.93051,1.31204 2.93051,2.9305c0,1.61847 -1.31204,2.93051 -2.93051,2.93051c-1.61847,0 -2.9305,-1.31204 -2.9305,-2.9305z" fill="#ffffff" stroke="#ffffff" stroke-width="2"/><path d="M-31.8986,-22.65252c0,-1.61847 1.31204,-2.9305 2.9305,-2.9305c1.61846,0 2.9305,1.31201 2.9305,2.9305c0,1.61847 -1.31204,2.9305 -2.9305,2.9305c-1.61846,0 -2.9305,-1.31202 -2.9305,-2.9305z" fill="#ffffff" stroke="#ffffff" stroke-width="2"/><path d="M-103.41289,10.67453c0,-1.61846 1.31204,-2.9305 2.9305,-2.9305c1.61846,0 2.93051,1.31204 2.93051,2.9305c0,1.61846 -1.31204,2.9305 -2.93051,2.9305c-1.61846,0 -2.9305,-1.31204 -2.9305,-2.9305z" fill="#ffffff" stroke="#ffffff" stroke-width="2"/><path d="M1.42846,49.13953c0,-1.61847 1.31204,-2.93051 2.93051,-2.93051c1.61846,0 2.9305,1.31204 2.9305,2.93051c0,1.61847 -1.31202,2.9305 -2.9305,2.9305c-1.61846,0 -2.93051,-1.31202 -2.93051,-2.9305z" fill="#ffffff" stroke="#ffffff" stroke-width="2"/><path d="M-70.2247,82.3277c0,-1.61846 1.31202,-2.9305 2.9305,-2.9305c1.61847,0 2.93051,1.31204 2.93051,2.9305c0,1.61846 -1.31204,2.9305 -2.93051,2.9305c-1.61847,0 -2.9305,-1.31204 -2.9305,-2.9305z" fill="#ffffff" stroke="#ffffff" stroke-width="2"/><text transform="translate(198.43254,133.22722) scale(0.29311,0.29311)" font-size="40" xml:space="preserve" fill="#ffffff" fill-rule="nonzero" stroke="none" stroke-width="1" stroke-linecap="butt" stroke-linejoin="miter" stroke-miterlimit="10" stroke-dasharray="" stroke-dashoffset="0" font-family="Sans Serif" font-weight="normal" text-anchor="start" style="mix-blend-mode: normal"><tspan x="0" dy="0">Click to close</tspan></text><path d="M-27.68025,40.75263c0,-6.21321 5.03679,-11.25 11.25,-11.25c6.2132,0 11.25,5.0368 11.25,11.25c0,6.21321 -5.0368,11.25 -11.25,11.25c-6.21321,0 -11.25,-5.03679 -11.25,-11.25zM-16.36633,47.90959c3.93503,0 7.125,-3.18997 7.125,-7.125c0,-3.93503 -3.18997,-7.125 -7.125,-7.125c-3.93503,0 -7.125,3.18997 -7.125,7.125c0,3.93503 3.18997,7.125 7.125,7.125z" fill="url(#color-1)" stroke="#000000" stroke-width="1"/><path d="M-19.274,40.50263c0,-1.43249 1.16126,-2.59375 2.59375,-2.59375c1.43248,0 2.59375,1.16126 2.59375,2.59375c0,1.43248 -1.16126,2.59375 -2.59375,2.59375c-1.43249,0 -2.59375,-1.16127 -2.59375,-2.59375z" fill="url(#color-2)" stroke="#000000" stroke-width="1"/><text transform="translate(19.05905,-9.53474) scale(0.39119,0.39119)" font-size="40" xml:space="preserve" fill="#f2f2f2" fill-rule="nonzero" stroke="none" stroke-width="1" stroke-linecap="butt" stroke-linejoin="miter" stroke-miterlimit="10" stroke-dasharray="" stroke-dashoffset="0" font-family="Sans Serif" font-weight="normal" text-anchor="start" style="mix-blend-mode: normal"><tspan x="0" dy="0">Press the corresponding key</tspan><tspan x="0" dy="46.150000000000006px">when a note approaches.</tspan><tspan x="0" dy="46.150000000000006px">As you hit the note accurately,</tspan><tspan x="0" dy="46.150000000000006px">your accuracy will increase more.</tspan></text><path d="M18.06506,70.92703c0,-10.19729 8.26653,-18.46382 18.46382,-18.46382c10.19729,0 18.46382,8.26653 18.46382,18.46382c0,10.19729 -8.26653,18.46382 -18.46382,18.46382c-10.19729,0 -18.46382,-8.26653 -18.46382,-18.46382zM36.51956,83.29335c6.45828,0 11.69375,-5.23547 11.69375,-11.69375c0,-6.45828 -5.23547,-11.69375 -11.69375,-11.69375c-6.45828,0 -11.69375,5.23547 -11.69375,11.69375c0,6.45828 5.23547,11.69375 11.69375,11.69375z" fill="url(#color-3)" stroke="#000000" stroke-width="1.5"/><path d="M32.27194,70.92703c0,-2.35103 1.9059,-4.25694 4.25694,-4.25694c2.35103,0 4.25694,1.9059 4.25694,4.25694c0,2.35103 -1.9059,4.25694 -4.25694,4.25694c-2.35103,0 -4.25694,-1.9059 -4.25694,-4.25694z" fill="url(#color-4)" stroke="#000000" stroke-width="1.5"/><text transform="translate(59.89573,63.0725) scale(0.22693,0.22693)" font-size="40" xml:space="preserve" fill="#f2f2f2" fill-rule="nonzero" stroke="none" stroke-width="1" stroke-linecap="butt" stroke-linejoin="miter" stroke-miterlimit="10" stroke-dasharray="" stroke-dashoffset="0" font-family="Sans Serif" font-weight="normal" text-anchor="start" style="mix-blend-mode: normal"><tspan x="0" dy="0">Break Notes:</tspan><tspan x="0" dy="46.150000000000006px">Gives you extra accuracy</tspan><tspan x="0" dy="46.150000000000006px">if you get Critical Perfect</tspan></text><path d="M-104.44497,116.03731c0,-10.19729 8.26653,-18.46382 18.46382,-18.46382c10.19729,0 18.46382,8.26653 18.46382,18.46382c0,10.19729 -8.26653,18.46382 -18.46382,18.46382c-10.19729,0 -18.46382,-8.26653 -18.46382,-18.46382zM-85.87625,127.78352c6.45828,0 11.69375,-5.23547 11.69375,-11.69375c0,-6.45828 -5.23547,-11.69375 -11.69375,-11.69375c-6.45828,0 -11.69375,5.23547 -11.69375,11.69375c0,6.45828 5.23547,11.69375 11.69375,11.69375z" fill="url(#color-5)" stroke="#000000" stroke-width="1.5"/><path d="M-90.6484,115.627c0,-2.35104 1.9059,-4.25694 4.25694,-4.25694c2.35104,0 4.25694,1.9059 4.25694,4.25694c0,2.35104 -1.9059,4.25694 -4.25694,4.25694c-2.35104,0 -4.25694,-1.9059 -4.25694,-4.25694z" fill="url(#color-6)" stroke="#000000" stroke-width="1.5"/><text transform="translate(-60.24008,107.77239) scale(0.22693,0.22693)" font-size="40" xml:space="preserve" fill="#f2f2f2" fill-rule="nonzero" stroke="none" stroke-width="1" stroke-linecap="butt" stroke-linejoin="miter" stroke-miterlimit="10" stroke-dasharray="" stroke-dashoffset="0" font-family="Sans Serif" font-weight="normal" text-anchor="start" style="mix-blend-mode: normal"><tspan x="0" dy="0">Tap Notes:</tspan><tspan x="0" dy="46.150000000000006px">Tap the note</tspan><tspan x="0" dy="46.150000000000006px">when it approaches</tspan></text><path d="M50.34726,97.57349c11.02439,0 19.96144,18.46382 19.96144,18.46382c0,0 -8.93705,18.46382 -19.96144,18.46382c-11.02439,0 -19.96144,-8.26654 -19.96144,-18.46382c0,-10.19728 8.93705,-18.46382 19.96144,-18.46382zM48.14186,126.55142c5.66516,0 10.25768,-4.59252 10.25768,-10.25768c0,-5.66516 -4.59252,-10.25768 -10.25768,-10.25768c-5.66516,0 -10.25768,4.59252 -10.25768,10.25768c0,5.66516 4.59252,10.25768 10.25768,10.25768z" fill="url(#color-7)" stroke="#000000" stroke-width="1.5"/><path d="M43.81312,116.03731c0,-2.35104 1.9059,-4.25694 4.25694,-4.25694c2.35104,0 4.25694,1.9059 4.25694,4.25694c0,2.35104 -1.9059,4.25694 -4.25694,4.25694c-2.35104,0 -4.25694,-1.9059 -4.25694,-4.25694z" fill="url(#color-8)" stroke="#000000" stroke-width="1.5"/><text transform="translate(76.99015,108.18269) scale(0.22693,0.22693)" font-size="40" xml:space="preserve" fill="#f2f2f2" fill-rule="nonzero" stroke="none" stroke-width="1" stroke-linecap="butt" stroke-linejoin="miter" stroke-miterlimit="10" stroke-dasharray="" stroke-dashoffset="0" font-family="Sans Serif" font-weight="normal" text-anchor="start" style="mix-blend-mode: normal"><tspan x="0" dy="0">Hold Notes:</tspan><tspan x="0" dy="46.150000000000006px">Hold the note</tspan><tspan x="0" dy="46.150000000000006px">when it approaches</tspan></text></g></g></svg>